<?xml version="1.0" standalone="no"?>
<!DOCTYPE svg PUBLIC "-//W3C//DTD SVG 20010904//EN"
 "http://www.w3.org/TR/2001/REC-SVG-20010904/DTD/svg10.dtd">
<svg version="1.0" xmlns="http://www.w3.org/2000/svg"
 width="256.000000pt" height="256.000000pt" viewBox="0 0 256.000000 256.000000"
 preserveAspectRatio="xMidYMid meet">

<g transform="translate(0.000000,256.000000) scale(0.100000,-0.100000)"
fill="#000000" stroke="none">
<path d="M0 1280 l0 -1280 1280 0 1280 0 0 1280 0 1280 -1280 0 -1280 0 0
-1280z m1760 521 c41 -35 77 -65 79 -67 6 -5 -220 -264 -230 -264 -17 0 -260
214 -257 226 2 8 52 70 111 139 l109 126 56 -48 c31 -26 91 -77 132 -112z
m-609 -666 c398 -335 732 -617 742 -625 18 -15 14 -22 -93 -148 -62 -73 -115
-132 -119 -132 -6 0 -404 334 -1253 1051 l-247 209 112 134 c67 80 117 131
124 128 6 -4 337 -281 734 -617z"/>
</g>
</svg>
